<svg width="28" height="28" viewBox="0 0 28 28" fill="none" xmlns="http://www.w3.org/2000/svg">
<path d="M24.1126 3.71466H3.88735C1.74054 3.71466 0 5.4552 0 7.60201V20.398C0 22.5448 1.74054 24.2854 3.88735 24.2854H24.1126C26.2594 24.2854 28 22.5448 28 20.398V7.60201C28 5.4552 26.2594 3.71466 24.1126 3.71466ZM9.74345 17.5941L4.29986 22.2381C3.9159 22.5658 3.33867 22.5203 3.01104 22.1359C2.68335 21.752 2.72891 21.1747 3.1133 20.8471L8.5569 16.203C8.9408 15.8754 9.51798 15.9209 9.84566 16.3053C10.1734 16.6892 10.1278 17.2664 9.74345 17.5941ZM14 15.8285C13.2719 15.8267 12.5661 15.5848 12.0143 15.1076L12.0147 15.108L12.013 15.1067C12.0134 15.1072 12.0139 15.1072 12.0143 15.1076L3.66198 7.85828C3.28027 7.52698 3.23963 6.94981 3.57044 6.56858C3.90168 6.18686 4.47891 6.14623 4.86008 6.47704L13.2147 13.7282C13.3933 13.8871 13.6875 14.0018 14 14C14.312 14.0009 14.6013 13.8893 14.7897 13.725L14.7937 13.7215L23.1399 6.47709C23.5211 6.14629 24.0983 6.18692 24.4296 6.56864C24.7603 6.94981 24.7197 7.52704 24.338 7.85833L15.9834 15.1098C15.4334 15.5821 14.7285 15.8276 14 15.8285ZM24.9893 22.1359C24.6617 22.5203 24.0844 22.5658 23.7006 22.2381L18.257 17.5941C17.8726 17.2664 17.8271 16.6892 18.1548 16.3053C18.4824 15.9209 19.0596 15.8754 19.4435 16.203L24.8871 20.8471C25.2715 21.1747 25.317 21.752 24.9893 22.1359Z" fill="white"/>
</svg>
