<svg width="28" height="28" viewBox="0 0 28 28" fill="none" xmlns="http://www.w3.org/2000/svg">
<path fill-rule="evenodd" clip-rule="evenodd" d="M4.08338 14C4.08338 8.52318 8.52322 4.08333 14 4.08333C19.4768 4.08333 23.9167 8.52318 23.9167 14C23.9167 19.4768 19.4768 23.9167 14 23.9167C12.0491 23.9167 10.2332 23.3546 8.701 22.3838C8.41585 22.2032 8.06645 22.1549 7.743 22.2514L4.38399 23.2539L5.64871 20.2945C5.79819 19.9447 5.76778 19.5441 5.5672 19.2209C4.62667 17.7053 4.08338 15.9179 4.08338 14ZM14 1.75C7.23456 1.75 1.75005 7.23451 1.75005 14C1.75005 16.1444 2.30204 18.163 3.27211 19.9181L1.26057 24.6248C1.08274 25.041 1.16157 25.5224 1.46281 25.86C1.76406 26.1977 2.2334 26.3307 2.66701 26.2012L7.91633 24.6347C9.70955 25.6626 11.7877 26.25 14 26.25C20.7655 26.25 26.25 20.7655 26.25 14C26.25 7.23451 20.7655 1.75 14 1.75ZM16.6746 16.5461L15.1414 17.6261C14.4233 17.2171 13.6294 16.6461 12.833 15.8497C12.0051 15.0219 11.3914 14.1672 10.9388 13.3832L11.9132 12.5561C12.3313 12.2012 12.4458 11.6029 12.1882 11.1187L10.9467 8.78533C10.7795 8.47113 10.478 8.25043 10.128 8.18596C9.77801 8.1215 9.41772 8.22033 9.14957 8.45435L8.78148 8.77561C7.89629 9.54816 7.37277 10.8177 7.80667 12.1031C8.2565 13.4357 9.21649 15.533 11.1831 17.4996C13.299 19.6155 15.4482 20.4487 16.7051 20.7724C17.7177 21.033 18.676 20.6836 19.3513 20.1334L20.0414 19.5711C20.3365 19.3306 20.4958 18.9611 20.468 18.5814C20.4401 18.2016 20.2287 17.8593 19.9016 17.6644L17.9436 16.4977C17.5481 16.2622 17.0511 16.2811 16.6746 16.5461Z" fill="white"/>
</svg>
