<svg width="62" height="62" viewBox="0 0 62 62" fill="none" xmlns="http://www.w3.org/2000/svg">
<g clip-path="url(#clip0_8_73)">
<path d="M4.41003 13.6733C3.40117 12.6644 1.76549 12.6644 0.75664 13.6733C-0.252214 14.6821 -0.252214 16.3178 0.75664 17.3267L20.1316 36.7016C21.1405 37.7104 22.7762 37.7104 23.785 36.7016L34.875 25.6117L53.18 43.9166H43.9167C42.4899 43.9166 41.3333 45.0732 41.3333 46.5C41.3333 47.9267 42.4899 49.0833 43.9167 49.0833H59.4149H59.4244C59.7719 49.0823 60.1031 49.0128 60.4056 48.8872C60.7101 48.7612 60.9956 48.5744 61.2433 48.3266C61.7163 47.8536 61.9674 47.2432 61.9972 46.624C61.999 46.5826 62 46.5413 62 46.5V31C62 29.5732 60.8434 28.4166 59.4167 28.4166C57.9899 28.4166 56.8333 29.5732 56.8333 31V40.2633L36.7017 20.1316C35.6929 19.1227 34.0571 19.1227 33.0483 20.1316L21.9583 31.2216L4.41003 13.6733Z" fill="#1F4361"/>
</g>
<defs>
<clipPath id="clip0_8_73">
<rect width="62" height="62" fill="white"/>
</clipPath>
</defs>
</svg>
