<svg width="57" height="66" viewBox="0 0 57 66" fill="none" xmlns="http://www.w3.org/2000/svg">
<path d="M26.1879 63.1891C26.9213 63.6134 27.288 63.8258 27.8054 63.9359C28.2072 64.0214 28.7928 64.0214 29.1946 63.9359C29.712 63.8258 30.0787 63.6134 30.8121 63.1891C37.2649 59.4533 55 47.7183 55 31.5839V13.8336C55 11.9996 55 11.0826 54.6442 10.3837C54.3289 9.76407 53.8363 9.26949 53.2156 8.94923C52.5156 8.58798 51.5759 8.57697 49.696 8.55491C39.8526 8.4394 34.1763 7.63281 28.5 2C22.8237 7.63281 17.1474 8.4394 7.30398 8.55491C5.42423 8.57697 4.48434 8.58798 3.78428 8.94923C3.16365 9.26949 2.67108 9.76407 2.35573 10.3837C2 11.0826 2 11.9996 2 13.8336V31.5839C2 47.7183 19.735 59.4533 26.1879 63.1891Z" stroke="#1F4361" stroke-width="4" stroke-linecap="round" stroke-linejoin="round"/>
</svg>
