<svg width="62" height="56" viewBox="0 0 62 56" fill="none" xmlns="http://www.w3.org/2000/svg">
<path d="M11.4403 54.1084C5.84995 52.7544 2.42315 50.8267 1.52932 48.5357H1.29167V39.8244C1.32411 38.7613 1.78785 37.7529 2.58333 37.0156V31.2363C1.54672 30.6119 0.72932 29.7012 0.237654 28.6229H0V19.9116C0 17.8968 1.73729 16.1371 5.16667 14.6848V8.71131C5.16667 2.98673 19.4628 0 33.5833 0C47.7038 0 62 2.98673 62 8.71131V17.4226H61.7662C61.1875 18.9222 59.5355 20.2575 56.8333 21.4049V24.765C57.5609 25.1527 58.1777 25.7079 58.6284 26.381C59.0792 27.0542 59.35 27.8244 59.4167 28.6229V37.3342H59.1777C58.9181 37.9609 58.5242 38.5279 58.0217 38.998C58.0888 39.2684 58.1234 39.5452 58.125 39.8231V48.5344H57.8873C56.9935 50.8255 53.5654 52.7532 47.9764 54.1072C35.9385 56.6309 23.4781 56.6309 11.4403 54.1072V54.1084ZM29.5533 53.5123H29.862C32.4919 53.5123 35.0429 53.404 37.4583 53.2099V49.7789H38.75V53.0954C42.5143 52.786 46.2337 52.0914 49.8454 51.0234H49.0833V47.2899H50.375V50.8504C51.1511 50.5903 51.911 50.2874 52.6509 49.9431C53.6631 49.5316 54.6312 49.026 55.5417 48.4336V43.681C52.2401 45.5653 48.5819 46.7968 44.7808 47.3036C34.8045 48.9373 24.6135 48.9373 14.6372 47.3036C10.8356 46.797 7.17691 45.5655 3.875 43.681V48.4286C4.78387 49.0174 5.74876 49.5216 6.75669 49.9344C9.1353 50.974 11.6382 51.7264 14.2083 52.1745V48.5344H15.5V52.4159C18.9169 52.9786 22.3691 53.3204 25.8333 53.4389V49.7789H27.125V53.4799C27.9258 53.5015 28.7353 53.5123 29.5533 53.5123ZM3.875 39.8231C3.875 42.4216 13.7033 46.0455 29.7083 46.0455C35.5982 46.1319 41.4774 45.5357 47.2195 44.2696C50.995 43.3686 53.7308 42.2137 54.9204 41.0178C49.8583 43.3873 40.9174 44.801 31 44.801C25.5646 44.8323 20.1391 44.3505 14.8012 43.3624C9.70689 42.3506 6.00623 40.8822 4.10103 39.1163C3.96045 39.3277 3.88232 39.5721 3.875 39.8231ZM30.845 42.3121H31.1537C33.7835 42.3121 36.3346 42.2038 38.75 42.0096V38.5786H40.0417V41.8952C43.5387 41.5979 46.9986 40.982 50.375 40.0558V37.3342H51.6667V39.6489C52.4427 39.3892 53.2026 39.0867 53.9426 38.7429C54.9544 38.3306 55.9224 37.825 56.8333 37.2334V32.4807C53.5321 34.3659 49.8738 35.5979 46.0725 36.1046C36.0957 37.7384 25.9043 37.7384 15.9275 36.1046C12.3476 35.5926 8.88809 34.4816 5.70528 32.8217C5.54382 32.7582 5.37332 32.6873 5.16537 32.6014V37.2284C6.07335 37.8186 7.03842 38.3229 8.0471 38.7342C10.4257 39.7738 12.9285 40.5262 15.4987 40.9742V37.3342H16.7904V41.0676H15.9611C19.6473 41.723 23.3788 42.1145 27.125 42.2386V38.5786H28.4167V42.2797C29.2175 42.3013 30.0269 42.3121 30.845 42.3121ZM28.2617 33.6008H28.5704C29.3876 33.6008 30.197 33.59 30.9987 33.5684V29.8673H32.2904V33.5273C36.0379 33.4034 39.7707 33.012 43.4581 32.3563H42.625V28.6229H43.9167V32.2692C46.4909 31.8202 48.9974 31.0653 51.3786 30.0216C52.3835 29.6113 53.3451 29.1087 54.25 28.5208V23.7694C50.9487 25.6544 47.2904 26.8864 43.4891 27.3933C33.5128 29.027 23.3218 29.027 13.3455 27.3933C9.54383 26.8863 5.88518 25.6543 2.58333 23.7694V28.5158C3.48609 29.1032 4.44548 29.6054 5.44823 30.0154C6.1959 30.364 6.96403 30.6702 7.7487 30.9326V27.3784H9.04037V31.3433C12.4168 32.2693 15.8767 32.8852 19.3737 33.1826V29.8673H20.6654V33.2971C23.0808 33.4925 25.6318 33.6008 28.2617 33.6008ZM54.8338 30.8169C56.141 30.0702 56.832 29.3148 56.832 28.6241H56.5944C56.2174 29.4909 55.6102 30.2467 54.8338 30.8156V30.8169ZM2.58333 19.9116C2.58333 22.51 12.4116 26.1339 28.4167 26.1339C35.1072 26.3011 41.7856 25.4935 48.2257 23.7383C43.3883 24.527 38.4894 24.9121 33.5833 24.8894C27.3973 24.9563 21.225 24.3112 15.1977 22.968C9.67199 21.614 6.28527 19.6975 5.40306 17.4214H5.16667V17.4064C3.49912 18.2415 2.58333 19.1263 2.58333 19.9116ZM33.4296 22.4005H33.7383C36.3669 22.4005 38.9179 22.2922 41.3333 22.0981V18.6671H42.625V21.9836C46.3884 21.6739 50.107 20.9793 53.7178 19.9116H52.9583V16.1781H54.25V19.7361C55.0319 19.4746 55.7974 19.1696 56.5427 18.8226C57.5488 18.4126 58.5113 17.9095 59.4167 17.3206V12.5692C54.6698 15.7662 44.0781 17.4226 33.5833 17.4226C23.0885 17.4226 12.4969 15.77 7.75 12.5692V17.3168C8.65585 17.9058 9.61878 18.4088 10.6253 18.8189C13.0057 19.8595 15.5108 20.6119 18.0833 21.059V17.4226H19.375V21.3041C22.7919 21.8664 26.2441 22.2077 29.7083 22.3258V18.6671H31V22.3681C31.8008 22.3897 32.6107 22.4005 33.4296 22.4005ZM7.75 8.71131C7.75 11.3098 17.5783 14.9337 33.5833 14.9337C49.5884 14.9337 59.4167 11.3098 59.4167 8.71131C59.4167 6.11285 49.5884 2.48894 33.5833 2.48894C17.5783 2.48894 7.75 6.11285 7.75 8.71131Z" fill="#1F4361"/>
</svg>
