<svg width="62" height="62" viewBox="0 0 62 62" fill="none" xmlns="http://www.w3.org/2000/svg">
<path d="M41.6816 0.00115381C36.1746 0.63775 33.0478 6.67682 32.6499 11.9223C31.9994 16.5855 34.0347 22.5359 38.9314 23.6081C43.1749 23.9867 46.551 19.999 47.9379 16.1951C49.5756 11.4339 49.6235 5.07562 45.6495 1.50864C44.5456 0.551785 43.1283 -0.0294779 41.6816 0.00115381ZM19.2181 0.250813C14.6358 0.582372 12.2872 5.90882 12.6059 10.1844C12.6449 15.9012 15.7836 22.331 21.5072 23.6881C25.7757 24.1498 28.6217 19.6216 28.8869 15.6623C29.4317 9.60295 26.7476 2.2627 20.6694 0.433254C20.197 0.302749 19.7071 0.237977 19.2181 0.250813ZM56.0378 18.6102C49.89 19.0609 46.0022 25.6144 45.735 31.5363C45.4115 35.393 47.9025 40.243 52.0968 39.9772C58.3695 39.3121 62.1513 32.3193 61.9954 26.2436C61.9551 22.7457 59.739 18.756 56.0378 18.6102ZM0.0476293 26.6044C-0.521608 33.1662 4.06901 40.583 10.7377 40.9961C14.7796 40.7261 16.6855 36.0306 16.2222 32.3157C15.8531 26.8343 12.189 21.2213 7.42845 20.488C2.66788 19.7548 -0.027852 23.1188 0.0476293 26.6044ZM31.7024 32.2021C25.4504 32.2167 19.7343 36.3056 16.6782 41.8379C14.1178 45.9722 12.0245 50.6526 11.6264 55.592C11.7135 59.4013 15.3473 62.5716 18.9909 61.8129C24.1881 61.1381 28.8323 57.528 34.2367 58.2044C38.7281 58.5631 42.4321 62.0467 46.9668 61.996C51.3699 62.1614 53.9099 57.1145 52.2308 53.1615C50.4239 47.5015 46.9207 42.5789 43.1606 38.1456C40.1612 34.8777 36.2327 32.0574 31.7024 32.2021Z" fill="#1F4361"/>
</svg>
