<svg width="62" height="62" viewBox="0 0 62 62" fill="none" xmlns="http://www.w3.org/2000/svg">
<path fill-rule="evenodd" clip-rule="evenodd" d="M50.1481 29.3684L50.1482 32.8614C51.7379 33.4239 53.1918 34.2741 54.4473 35.3497L57.4724 33.6013L62 41.4513L58.9769 43.1986C59.1256 44.0045 59.2033 44.8353 59.2033 45.6842C59.2033 46.5332 59.1256 47.364 58.9769 48.1699L62 49.9171L57.4724 57.7671L54.4473 56.0187C53.1918 57.0943 51.7379 57.9445 50.1482 58.507L50.1481 62H41.0929L41.0928 58.507C39.5032 57.9446 38.0494 57.0943 36.7939 56.0189L33.7687 57.7671L29.2411 49.9171L32.2642 48.1699C32.1155 47.364 32.0377 46.5332 32.0377 45.6842C32.0377 44.8352 32.1155 44.0044 32.2642 43.1984L29.2411 41.4513L33.7687 33.6013L36.7937 35.3497C38.0493 34.2742 39.5031 33.4239 41.0928 32.8614L41.0929 29.3684H50.1481ZM45.6205 40.2456C42.6199 40.2456 40.1874 42.6806 40.1874 45.6842C40.1874 48.6879 42.6199 51.1228 45.6205 51.1228C48.6212 51.1228 51.0537 48.6879 51.0537 45.6842C51.0537 42.6806 48.6212 40.2456 45.6205 40.2456ZM6.51975 0V19.5789L22.8191 11.4211V19.5789L39.1185 11.4211L39.1184 27.2194C33.5609 29.1857 29.1563 33.5948 27.192 39.1578L0 39.1579V0H6.51975Z" fill="#1F4361"/>
</svg>
