<svg width="46" height="62" viewBox="0 0 46 62" fill="none" xmlns="http://www.w3.org/2000/svg">
<path d="M13.1915 62C9.69289 62 6.33758 60.6102 3.8637 58.1363C1.38981 55.6624 0 52.3071 0 48.8085C0 40.0142 13.1915 25.0638 13.1915 25.0638C13.1915 25.0638 26.383 40.0142 26.383 48.8085C26.383 52.3071 24.9932 55.6624 22.5193 58.1363C20.0454 60.6102 16.6901 62 13.1915 62Z" fill="#1F4361"/>
<path d="M26.383 27.9C23.7415 27.9 21.2083 26.8502 19.3405 24.9815C17.4727 23.1129 16.4234 20.5784 16.4234 17.9357C16.4234 11.2929 26.383 0 26.383 0C26.383 0 36.3425 11.2929 36.3425 17.9357C36.3425 20.5784 35.2932 23.1129 33.4255 24.9815C31.5577 26.8502 29.0244 27.9 26.383 27.9Z" fill="#1F4361"/>
<path d="M36.3755 49.9298C34.0227 49.9298 31.7663 48.9942 30.1026 47.3287C28.4389 45.6633 27.5043 43.4044 27.5043 41.0491C27.5043 35.1286 36.3755 25.0638 36.3755 25.0638C36.3755 25.0638 45.2468 35.1286 45.2468 41.0491C45.2468 43.4044 44.3122 45.6633 42.6485 47.3287C40.9848 48.9942 38.7283 49.9298 36.3755 49.9298Z" fill="#1F4361"/>
</svg>
